<svg width="243" height="130" viewBox="0 0 243 130" fill="none" xmlns="http://www.w3.org/2000/svg">
<path fill-rule="evenodd" clip-rule="evenodd" d="M185.832 64.5966L121.236 129.193L101.793 109.75L147.343 64.2001L102.189 19.0463L121.236 -1.52588e-05L185.832 64.5966Z" fill="black"/>
<path d="M85.9914 36.3056C80.2574 30.5717 72.9519 26.6668 64.9987 25.0848C57.0455 23.5028 48.8018 24.3147 41.31 27.4179C33.8182 30.5211 27.4149 35.7762 22.9097 42.5186C18.4046 49.261 16 57.188 16 65.297C16 73.406 18.4046 81.333 22.9097 88.0754C27.4149 94.8178 33.8182 100.073 41.31 103.176C48.8017 106.279 57.0455 107.091 64.9987 105.509C72.9519 103.927 80.2574 100.022 85.9914 94.2884" stroke="black" stroke-width="32"/>
<path fill-rule="evenodd" clip-rule="evenodd" d="M180.89 40.2218H193C202.941 40.2218 211 48.2807 211 58.2218V72.4135C211 82.3547 202.941 90.4135 193 90.4135H178.808C173.636 90.4135 168.973 88.232 165.69 84.7389L143.059 107.37C152.136 116.652 164.8 122.414 178.808 122.414H193C220.614 122.414 243 100.028 243 72.4135V58.2218C243 30.6076 220.614 8.2218 193 8.2218H178.808C170.166 8.2218 162.035 10.4146 154.943 14.2743L180.89 40.2218Z" fill="black"/>
</svg>
