<svg width="243" height="223" viewBox="0 0 243 223" fill="none" xmlns="http://www.w3.org/2000/svg">
<path fill-rule="evenodd" clip-rule="evenodd" d="M185.832 64.5966L165.69 84.7388C168.973 88.2319 173.636 90.4135 178.808 90.4135H193C202.941 90.4135 211 82.3546 211 72.4135V58.2218C211 48.2807 202.941 40.2218 193 40.2218H180.89L154.943 14.2742C162.035 10.4146 170.166 8.22176 178.808 8.22176H193C220.614 8.22176 243 30.6075 243 58.2218V72.4135C243 100.028 220.614 122.413 193 122.413H178.808C164.8 122.413 152.136 116.652 143.059 107.37L121.236 129.193L101.793 109.75L147.343 64.2001L102.189 19.0463L121.236 0L185.832 64.5966ZM63.5355 170.364C61.9749 170.364 60.6151 169.973 59.456 169.193C58.3045 168.413 57.4105 167.345 56.7741 165.989C56.1378 164.633 55.8196 163.087 55.8196 161.352C55.8196 159.602 56.1416 158.045 56.7855 156.682C57.437 155.318 58.3385 154.25 59.4901 153.477C60.6416 152.697 61.9787 152.307 63.5014 152.307C64.6681 152.307 65.7249 152.534 66.6719 152.989C67.6188 153.436 68.3991 154.068 69.0128 154.886C69.634 155.697 70.0241 156.644 70.1832 157.727H68.1378C67.9257 156.742 67.4143 155.902 66.6037 155.205C65.8007 154.5 64.7779 154.148 63.5355 154.148C62.4219 154.148 61.437 154.451 60.581 155.057C59.7249 155.655 59.0545 156.492 58.5696 157.568C58.0923 158.636 57.8537 159.875 57.8537 161.284C57.8537 162.701 58.0885 163.955 58.5582 165.045C59.0279 166.129 59.687 166.977 60.5355 167.591C61.3916 168.205 62.3916 168.511 63.5355 168.511C64.3082 168.511 65.0128 168.367 65.6491 168.08C66.2931 167.784 66.831 167.367 67.2628 166.83C67.7022 166.292 67.9976 165.652 68.1491 164.909H70.1946C70.0431 165.962 69.6681 166.902 69.0696 167.727C68.4787 168.545 67.7098 169.189 66.7628 169.659C65.8234 170.129 64.7476 170.364 63.5355 170.364ZM76.5526 159.091V170H74.5298V146.727H76.5526V155.284H76.7344C77.1435 154.383 77.776 153.663 78.6321 153.125C79.4957 152.587 80.5866 152.318 81.9048 152.318C83.0866 152.318 84.1245 152.561 85.0185 153.045C85.9124 153.53 86.6094 154.246 87.1094 155.193C87.6094 156.14 87.8594 157.307 87.8594 158.693V170H85.8253V158.818C85.8253 157.379 85.4238 156.246 84.6207 155.42C83.8253 154.587 82.7495 154.17 81.3935 154.17C80.4616 154.17 79.6321 154.367 78.9048 154.761C78.1776 155.155 77.6018 155.723 77.1776 156.466C76.7609 157.201 76.5526 158.076 76.5526 159.091ZM98.0611 170.398C97.008 170.398 96.0459 170.193 95.1747 169.784C94.3035 169.367 93.6103 168.769 93.0952 167.989C92.58 167.201 92.3224 166.246 92.3224 165.125C92.3224 164.261 92.4853 163.534 92.8111 162.943C93.1368 162.352 93.599 161.867 94.1974 161.489C94.7959 161.11 95.5043 160.811 96.3224 160.591C97.1406 160.371 98.0421 160.201 99.027 160.08C100.004 159.958 100.83 159.852 101.504 159.761C102.186 159.67 102.705 159.527 103.061 159.33C103.417 159.133 103.595 158.814 103.595 158.375V157.966C103.595 156.777 103.239 155.841 102.527 155.159C101.822 154.47 100.807 154.125 99.4815 154.125C98.224 154.125 97.1974 154.402 96.402 154.955C95.6141 155.508 95.0611 156.159 94.7429 156.909L92.8224 156.216C93.2164 155.261 93.7618 154.5 94.4588 153.932C95.1558 153.356 95.9361 152.943 96.7997 152.693C97.6634 152.436 98.5384 152.307 99.4247 152.307C100.091 152.307 100.785 152.394 101.504 152.568C102.232 152.742 102.906 153.045 103.527 153.477C104.148 153.902 104.652 154.496 105.038 155.261C105.425 156.019 105.618 156.981 105.618 158.148V170H103.595V167.239H103.47C103.228 167.754 102.868 168.254 102.391 168.739C101.913 169.223 101.315 169.621 100.595 169.932C99.8755 170.242 99.0308 170.398 98.0611 170.398ZM98.3338 168.545C99.4096 168.545 100.341 168.307 101.129 167.83C101.917 167.352 102.523 166.72 102.947 165.932C103.379 165.136 103.595 164.261 103.595 163.307V160.784C103.444 160.928 103.19 161.057 102.834 161.17C102.485 161.284 102.08 161.386 101.618 161.477C101.163 161.561 100.709 161.633 100.254 161.693C99.7997 161.754 99.3906 161.807 99.027 161.852C98.0421 161.973 97.2012 162.163 96.5043 162.42C95.8073 162.678 95.2732 163.034 94.902 163.489C94.5308 163.936 94.3452 164.511 94.3452 165.216C94.3452 166.277 94.724 167.098 95.4815 167.682C96.2391 168.258 97.1899 168.545 98.3338 168.545ZM113.021 159.091V170H110.999V152.545H112.964V155.284H113.146C113.555 154.39 114.192 153.674 115.055 153.136C115.927 152.591 117.002 152.318 118.283 152.318C119.457 152.318 120.487 152.564 121.374 153.057C122.268 153.542 122.961 154.258 123.453 155.205C123.953 156.152 124.203 157.314 124.203 158.693V170H122.18V158.818C122.18 157.386 121.779 156.254 120.976 155.42C120.18 154.587 119.112 154.17 117.771 154.17C116.855 154.17 116.04 154.367 115.328 154.761C114.616 155.155 114.052 155.723 113.635 156.466C113.226 157.201 113.021 158.076 113.021 159.091ZM131.553 159.091V170H129.53V152.545H131.496V155.284H131.678C132.087 154.39 132.723 153.674 133.587 153.136C134.458 152.591 135.534 152.318 136.814 152.318C137.988 152.318 139.018 152.564 139.905 153.057C140.799 153.542 141.492 154.258 141.984 155.205C142.484 156.152 142.734 157.314 142.734 158.693V170H140.712V158.818C140.712 157.386 140.31 156.254 139.507 155.42C138.712 154.587 137.643 154.17 136.303 154.17C135.386 154.17 134.572 154.367 133.859 154.761C133.147 155.155 132.583 155.723 132.166 156.466C131.757 157.201 131.553 158.076 131.553 159.091ZM155.118 170.364C153.489 170.364 152.08 169.985 150.891 169.227C149.701 168.462 148.781 167.405 148.129 166.057C147.485 164.701 147.163 163.14 147.163 161.375C147.163 159.617 147.485 158.057 148.129 156.693C148.781 155.322 149.678 154.25 150.822 153.477C151.974 152.697 153.303 152.307 154.811 152.307C155.758 152.307 156.671 152.481 157.55 152.83C158.428 153.17 159.216 153.697 159.913 154.409C160.618 155.114 161.175 156.004 161.584 157.08C161.993 158.148 162.197 159.413 162.197 160.875V161.875H149.2C149.227 163.158 149.465 164.286 149.913 165.261C150.398 166.292 151.084 167.091 151.97 167.659C152.857 168.227 153.906 168.511 155.118 168.511C155.944 168.511 156.667 168.383 157.288 168.125C157.917 167.867 158.444 167.523 158.868 167.091C159.3 166.652 159.625 166.17 159.845 165.648L161.766 166.273C161.5 167.008 161.065 167.686 160.459 168.307C159.86 168.928 159.11 169.428 158.209 169.807C157.315 170.178 156.285 170.364 155.118 170.364ZM149.913 157.375C149.508 158.213 149.274 159.118 149.213 160.091H160.129C160.129 158.97 159.902 157.962 159.447 157.068C159 156.167 158.375 155.455 157.572 154.932C156.777 154.409 155.857 154.148 154.811 154.148C153.705 154.148 152.732 154.443 151.891 155.034C151.05 155.625 150.391 156.405 149.913 157.375ZM168.678 146.727V170H166.655V146.727H168.678ZM175.871 146.727V148.773C175.871 149.394 175.757 150.057 175.53 150.761C175.31 151.458 174.984 152.136 174.553 152.795C174.128 153.447 173.613 154.015 173.007 154.5L171.905 153.534C172.473 152.867 172.954 152.129 173.348 151.318C173.742 150.5 173.939 149.663 173.939 148.807V146.727H175.871ZM188.945 156.375L187.092 156.898C186.911 156.375 186.653 155.902 186.32 155.477C185.986 155.053 185.551 154.716 185.013 154.466C184.482 154.216 183.823 154.091 183.036 154.091C181.854 154.091 180.884 154.371 180.126 154.932C179.369 155.492 178.99 156.216 178.99 157.102C178.99 157.852 179.248 158.462 179.763 158.932C180.286 159.394 181.089 159.761 182.172 160.034L184.808 160.682C186.27 161.038 187.365 161.602 188.092 162.375C188.827 163.148 189.195 164.117 189.195 165.284C189.195 166.269 188.922 167.144 188.376 167.909C187.831 168.674 187.07 169.277 186.092 169.716C185.123 170.148 183.998 170.364 182.717 170.364C181.013 170.364 179.607 169.981 178.501 169.216C177.395 168.443 176.687 167.33 176.376 165.875L178.32 165.398C178.57 166.436 179.058 167.22 179.786 167.75C180.52 168.28 181.486 168.545 182.683 168.545C184.024 168.545 185.096 168.246 185.899 167.648C186.702 167.042 187.104 166.284 187.104 165.375C187.104 164.67 186.869 164.08 186.399 163.602C185.929 163.117 185.217 162.761 184.263 162.534L181.411 161.852C179.895 161.489 178.774 160.913 178.047 160.125C177.32 159.337 176.956 158.36 176.956 157.193C176.956 156.231 177.217 155.386 177.74 154.659C178.263 153.924 178.982 153.348 179.899 152.932C180.816 152.515 181.861 152.307 183.036 152.307C184.634 152.307 185.911 152.67 186.865 153.398C187.827 154.117 188.52 155.11 188.945 156.375ZM47.4329 88.3939C52.0011 90.2861 57.0277 90.7812 61.8773 89.8166C66.7268 88.852 71.1814 86.4709 74.6777 82.9746L97.3051 105.602C89.3335 113.574 79.1771 119.002 68.1201 121.202C57.0632 123.401 45.6024 122.272 35.187 117.958C24.7717 113.644 15.8695 106.338 9.60623 96.9644C3.34299 87.5909 0 76.5705 0 65.297C0 54.0234 3.34299 43.003 9.60623 33.6294C15.8695 24.2558 24.7717 16.95 35.187 12.6358C45.6024 8.32162 57.0632 7.19283 68.1201 9.39219C79.1771 11.5915 89.3335 17.0203 97.3051 24.9919L74.6777 47.6193C71.1814 44.123 66.7268 41.742 61.8773 40.7773C57.0277 39.8127 52.0011 40.3078 47.4329 42.2C42.8648 44.0922 38.9603 47.2965 36.2133 51.4077C33.4662 55.5189 32 60.3524 32 65.297C32 70.2415 33.4662 75.075 36.2133 79.1862C38.9603 83.2974 42.8648 86.5017 47.4329 88.3939ZM55.8125 175.455V222H77.7216C81.1004 222 84.0095 221.432 86.4489 220.295C88.8883 219.159 90.767 217.598 92.0852 215.614C93.4186 213.629 94.0852 211.364 94.0852 208.818C94.0852 206.621 93.6004 204.712 92.6307 203.091C91.661 201.455 90.358 200.174 88.7216 199.25C87.0852 198.311 85.267 197.803 83.267 197.727V197.273C85.0701 196.909 86.6458 196.258 87.9943 195.318C89.3428 194.364 90.3883 193.182 91.1307 191.773C91.8883 190.364 92.267 188.803 92.267 187.091C92.267 184.727 91.6458 182.674 90.4034 180.932C89.1761 179.189 87.3504 177.841 84.9261 176.886C82.517 175.932 79.5398 175.455 75.9943 175.455H55.8125ZM74.358 211.909H68.4489V202.091H74.5398C75.8277 202.091 76.9261 202.288 77.8352 202.682C78.7595 203.076 79.4716 203.652 79.9716 204.409C80.4716 205.167 80.7216 206.091 80.7216 207.182C80.7216 208.742 80.1913 209.924 79.1307 210.727C78.0701 211.515 76.4792 211.909 74.358 211.909ZM73.6307 194.273H68.4489V185.364H73.8125C75.3883 185.364 76.6913 185.75 77.7216 186.523C78.7519 187.28 79.267 188.379 79.267 189.818C79.267 190.773 79.0246 191.583 78.5398 192.25C78.0701 192.902 77.411 193.402 76.5625 193.75C75.714 194.098 74.7367 194.273 73.6307 194.273ZM140.631 211.841C142.646 208.28 143.653 203.909 143.653 198.727C143.653 193.545 142.646 189.182 140.631 185.636C138.616 182.076 135.896 179.386 132.472 177.568C129.047 175.735 125.229 174.818 121.017 174.818C116.775 174.818 112.941 175.735 109.517 177.568C106.108 179.386 103.396 182.076 101.381 185.636C99.3807 189.182 98.3807 193.545 98.3807 198.727C98.3807 203.879 99.3807 208.235 101.381 211.795C103.396 215.341 106.108 218.038 109.517 219.886C112.941 221.72 116.775 222.636 121.017 222.636C125.229 222.636 129.047 221.727 132.472 219.909C135.896 218.076 138.616 215.386 140.631 211.841ZM129.54 191.682C130.282 193.591 130.653 195.939 130.653 198.727C130.653 201.515 130.282 203.871 129.54 205.795C128.812 207.705 127.729 209.159 126.29 210.159C124.866 211.144 123.108 211.636 121.017 211.636C118.926 211.636 117.161 211.144 115.722 210.159C114.297 209.159 113.214 207.705 112.472 205.795C111.744 203.871 111.381 201.515 111.381 198.727C111.381 195.939 111.744 193.591 112.472 191.682C113.214 189.758 114.297 188.303 115.722 187.318C117.161 186.318 118.926 185.818 121.017 185.818C123.108 185.818 124.866 186.318 126.29 187.318C127.729 188.303 128.812 189.758 129.54 191.682ZM167.557 189L159.92 175.455H145.739L159.557 198.727L145.284 222H159.648L167.557 208.182H167.92L175.83 222H190.284L175.83 198.727L189.739 175.455H175.648L167.92 189H167.557Z" fill="url(#paint0_linear_2_156)"/>
<defs>
<linearGradient id="paint0_linear_2_156" x1="121.5" y1="0" x2="121.5" y2="222.636" gradientUnits="userSpaceOnUse">
<stop stop-color="#AD00D9"/>
<stop offset="1" stop-color="#7F3CBA"/>
</linearGradient>
</defs>
</svg>
